<?xml version="1.0" encoding="iso-8859-1"?>
<!-- Uploaded to: SVG Repo, www.svgrepo.com, Generator: SVG Repo Mixer Tools -->
<!DOCTYPE svg PUBLIC "-//W3C//DTD SVG 1.1//EN" "http://www.w3.org/Graphics/SVG/1.1/DTD/svg11.dtd">
<svg fill="#000000" height="800px" width="800px" version="1.1" id="Capa_1" xmlns="http://www.w3.org/2000/svg" xmlns:xlink="http://www.w3.org/1999/xlink" 
	 viewBox="0 0 297 297" xml:space="preserve">
<g>
	<path d="M167.621,151.103c0-18.605-15.138-33.742-33.743-33.742c-9.397,0-17.909,3.859-24.033,10.08
		c-6.124-6.221-14.636-10.08-24.032-10.08c-18.606,0-33.743,15.137-33.743,33.742c0,37.613,51.252,63.672,53.434,64.762
		c1.366,0.684,2.854,1.025,4.342,1.025c1.488,0,2.976-0.342,4.343-1.025C116.369,214.775,167.621,188.716,167.621,151.103z
		 M109.845,196.14c-13.71-7.895-38.355-26.021-38.355-45.037c0-7.896,6.426-14.322,14.323-14.322
		c7.897,0,14.322,6.426,14.322,14.322c0,5.363,4.348,9.711,9.71,9.711s9.711-4.348,9.711-9.711c0-7.896,6.425-14.322,14.322-14.322
		c7.898,0,14.322,6.426,14.322,14.322C148.2,170.119,123.555,188.246,109.845,196.14z"/>
	<path d="M63.398,90.006c0,0,12.326-4.108,12.326-14.381c0-3.403-2.76-6.163-6.164-6.163c-3.403,0-6.162,2.76-6.162,6.163
		c0-3.403-2.76-6.163-6.163-6.163c-3.404,0-6.164,2.76-6.164,6.163C51.071,85.897,63.398,90.006,63.398,90.006z"/>
	<path d="M162.779,247.159c-3.403,0-6.163,2.76-6.163,6.163c0-3.403-2.76-6.163-6.163-6.163c-3.404,0-6.163,2.76-6.163,6.163
		c0,10.272,12.326,14.38,12.326,14.38s12.326-4.107,12.326-14.38C168.942,249.919,166.183,247.159,162.779,247.159z"/>
	<path d="M199.664,277.467c19.26-49.653,76.051-201.423,76.051-201.423c1.831-4.844,1.661-10.118-0.478-14.853
		c-2.139-4.735-5.982-8.351-10.825-10.179L132.7,1.256c-10.015-3.787-21.245,1.283-25.031,11.303l-9.328,24.693H39.446
		c-10.709,0-19.421,8.711-19.421,19.42V277.58c0,10.708,8.712,19.42,19.421,19.42h140.798
		C190.953,297,195.771,287.503,199.664,277.467z M125.836,19.422l47.194,17.83h-53.931L125.836,19.422z M39.446,277.58V56.672
		h140.798l0.002,220.908H39.446z M199.664,222.402V56.672c0-3.887-1.159-7.503-3.134-10.543l61.019,23.052L199.664,222.402z"/>
</g>
</svg>