<svg width="30" height="30" viewBox="0 0 30 30" fill="none" xmlns="http://www.w3.org/2000/svg">
<path fill-rule="evenodd" clip-rule="evenodd" d="M23.2398 8.75C23.9301 8.75 24.4898 9.30964 24.4898 10V13.75C24.4898 15.8211 22.8109 17.5 20.7398 17.5H6.98979C6.29944 17.5 5.73979 16.9404 5.73979 16.25C5.73979 15.5596 6.29944 15 6.98979 15H20.7398C21.4301 15 21.9898 14.4404 21.9898 13.75V10C21.9898 9.30964 22.5494 8.75 23.2398 8.75Z" fill="black"/>
<path fill-rule="evenodd" clip-rule="evenodd" d="M10.8839 11.6161C11.372 12.1043 11.372 12.8957 10.8839 13.3839L8.01777 16.25L10.8839 19.1161C11.372 19.6043 11.372 20.3957 10.8839 20.8839C10.3957 21.372 9.60427 21.372 9.11612 20.8839L5.36612 17.1339C4.87796 16.6457 4.87796 15.8543 5.36612 15.3661L9.11612 11.6161C9.60427 11.128 10.3957 11.128 10.8839 11.6161Z" fill="black"/>
</svg>
